<svg width="56" height="56" viewBox="0 0 56 56" fill="none" xmlns="http://www.w3.org/2000/svg">
<g clip-path="url(#clip0_211_443)">
<path d="M25.0645 39.0664C27.8594 39.0664 30.4785 38.2227 32.6582 36.7812L40.3574 44.498C40.8672 44.9902 41.5176 45.2363 42.2207 45.2363C43.6797 45.2363 44.752 44.0938 44.752 42.6523C44.752 41.9844 44.5234 41.334 44.0312 40.8418L36.3848 33.1602C37.9668 30.9102 38.8984 28.1855 38.8984 25.2324C38.8984 17.6211 32.6758 11.3984 25.0645 11.3984C17.4707 11.3984 11.2305 17.6211 11.2305 25.2324C11.2305 32.8438 17.4531 39.0664 25.0645 39.0664ZM25.0645 35.375C19.4922 35.375 14.9219 30.8047 14.9219 25.2324C14.9219 19.6602 19.4922 15.0898 25.0645 15.0898C30.6367 15.0898 35.207 19.6602 35.207 25.2324C35.207 30.8047 30.6367 35.375 25.0645 35.375Z" fill="#3C3C43" fill-opacity="0.6"/>
</g>
<defs>
<clipPath id="clip0_211_443">
<rect width="56" height="56" fill="white"/>
</clipPath>
</defs>
</svg>
